<?xml version="1.0" encoding="UTF-8" standalone="no"?>
<!DOCTYPE svg PUBLIC "-//W3C//DTD SVG 1.1//EN"
 "http://www.w3.org/Graphics/SVG/1.1/DTD/svg11.dtd">
<!-- Generated by graphviz version 2.43.0 (0)
 -->
<!-- Title: %3 Pages: 1 -->
<svg width="699pt" height="165pt"
 viewBox="0.00 0.00 699.00 164.74" xmlns="http://www.w3.org/2000/svg" xmlns:xlink="http://www.w3.org/1999/xlink">
<g id="graph0" class="graph" transform="scale(1 1) rotate(0) translate(36 128.74)">
<title>%3</title>
<polygon fill="dimgray" stroke="transparent" points="-36,36 -36,-128.74 663,-128.74 663,36 -36,36"/>
<text text-anchor="middle" x="313.5" y="-77.54" font-family="Helvetica,sans-Serif" font-size="14.00">Sweep&#39;s Plan &amp; Progress</text>
<!-- start -->
<g id="node1" class="node">
<title>start</title>
</g>
<!-- 59d6ad4f&#45;f55c&#45;4cd9&#45;8879&#45;c6ed7ad3ec5e -->
<g id="node3" class="node">
<title>59d6ad4f&#45;f55c&#45;4cd9&#45;8879&#45;c6ed7ad3ec5e</title>
<ellipse fill="yellow" stroke="black" cx="193.5" cy="-26.87" rx="141.34" ry="26.74"/>
<text text-anchor="middle" x="193.5" y="-30.67" font-family="Helvetica,sans-Serif" font-size="14.00">⋯ Modify</text>
<text text-anchor="middle" x="193.5" y="-15.67" font-family="Helvetica,sans-Serif" font-size="14.00">wavectl/BaseCommand.py</text>
</g>
<!-- start&#45;&gt;59d6ad4f&#45;f55c&#45;4cd9&#45;8879&#45;c6ed7ad3ec5e -->
<g id="edge2" class="edge">
<title>start&#45;&gt;59d6ad4f&#45;f55c&#45;4cd9&#45;8879&#45;c6ed7ad3ec5e</title>
<path fill="none" stroke="black" d="M1.05,-26.87C4.16,-26.87 20.05,-26.87 41.47,-26.87"/>
<polygon fill="black" stroke="black" points="41.68,-30.37 51.68,-26.87 41.68,-23.37 41.68,-30.37"/>
<text text-anchor="middle" x="26.54" y="-33.67" font-family="Helvetica,sans-Serif" font-size="14.00">Start</text>
</g>
<!-- end -->
<g id="node2" class="node">
<title>end</title>
</g>
<!-- d1ad5423&#45;03d3&#45;4cbf&#45;a860&#45;8956ea4989dc -->
<g id="node4" class="node">
<title>d1ad5423&#45;03d3&#45;4cbf&#45;a860&#45;8956ea4989dc</title>
<ellipse fill="white" stroke="black" cx="469.5" cy="-26.87" rx="98.99" ry="26.74"/>
<text text-anchor="middle" x="469.5" y="-30.67" font-family="Helvetica,sans-Serif" font-size="14.00">▶ Modify</text>
<text text-anchor="middle" x="469.5" y="-15.67" font-family="Helvetica,sans-Serif" font-size="14.00">wavectl/Config.py</text>
</g>
<!-- 59d6ad4f&#45;f55c&#45;4cd9&#45;8879&#45;c6ed7ad3ec5e&#45;&gt;d1ad5423&#45;03d3&#45;4cbf&#45;a860&#45;8956ea4989dc -->
<g id="edge1" class="edge">
<title>59d6ad4f&#45;f55c&#45;4cd9&#45;8879&#45;c6ed7ad3ec5e&#45;&gt;d1ad5423&#45;03d3&#45;4cbf&#45;a860&#45;8956ea4989dc</title>
<path fill="none" stroke="black" d="M335,-26.87C343.41,-26.87 351.81,-26.87 360.22,-26.87"/>
<polygon fill="black" stroke="black" points="360.47,-30.37 370.47,-26.87 360.47,-23.37 360.47,-30.37"/>
</g>
<!-- d1ad5423&#45;03d3&#45;4cbf&#45;a860&#45;8956ea4989dc&#45;&gt;end -->
<g id="edge3" class="edge">
<title>d1ad5423&#45;03d3&#45;4cbf&#45;a860&#45;8956ea4989dc&#45;&gt;end</title>
<path fill="none" stroke="black" d="M568.93,-26.87C587.9,-26.87 605.11,-26.87 615.68,-26.87"/>
<polygon fill="black" stroke="black" points="615.82,-30.37 625.82,-26.87 615.82,-23.37 615.82,-30.37"/>
<text text-anchor="middle" x="597.25" y="-33.67" font-family="Helvetica,sans-Serif" font-size="14.00">Finish</text>
</g>
</g>
</svg>
